HIERARCHY
ROOT Hips
{
	OFFSET 0.000000 0.000000 0.000000
	CHANNELS 6 Xposition Yposition Zposition Xrotation Yrotation Zrotation
	JOINT LeftUpLeg_virtual
	{
		OFFSET 0.000000 0.000000 0.000000
		CHANNELS 3 Xrotation Yrotation Zrotation
		JOINT LeftUpLeg
		{
			OFFSET 13.026900 -6.336304 -1.092800
			CHANNELS 3 Xrotation Yrotation Zrotation
			JOINT LeftLeg
			{
				OFFSET 0.524474 -46.096886 9.782700
				CHANNELS 3 Xrotation Yrotation Zrotation
				JOINT LeftFoot
				{
					OFFSET -0.524474 -53.427422 -12.948200
					CHANNELS 3 Xrotation Yrotation Zrotation
					JOINT LeftToeBase
					{
						OFFSET 0.192200 -14.009700 16.364100
						CHANNELS 3 Xrotation Yrotation Zrotation
						JOINT LeftToe_End
						{
							OFFSET -1.784700 -0.561700 9.474800
							CHANNELS 3 Xrotation Yrotation Zrotation
							End Site
							{
								OFFSET 0 0 0
							}
						}
					}
				}
			}
		}
	}
	JOINT RightUpLeg_virtual
	{
		OFFSET 0.000000 0.000000 0.000000
		CHANNELS 3 Xrotation Yrotation Zrotation
		JOINT RightUpLeg
		{
			OFFSET -12.883000 -6.336304 -1.092800
			CHANNELS 3 Xrotation Yrotation Zrotation
			JOINT RightLeg
			{
				OFFSET -0.524587 -46.096825 9.782800
				CHANNELS 3 Xrotation Yrotation Zrotation
				JOINT RightFoot
				{
					OFFSET 0.524587 -53.427383 -12.948300
					CHANNELS 3 Xrotation Yrotation Zrotation
					JOINT RightToeBase
					{
						OFFSET -0.192200 -14.009700 16.364100
						CHANNELS 3 Xrotation Yrotation Zrotation
						JOINT RightToe_End
						{
							OFFSET 1.784700 -0.561700 9.474800
							CHANNELS 3 Xrotation Yrotation Zrotation
							End Site
							{
								OFFSET 0 0 0
							}
						}
					}
				}
			}
		}
	}
	JOINT Spine_virtual
	{
		OFFSET 0.000000 0.000000 0.000000
		CHANNELS 3 Xrotation Yrotation Zrotation
		JOINT Spine
		{
			OFFSET 0.072000 7.257294 -0.789700
			CHANNELS 3 Xrotation Yrotation Zrotation
			JOINT Spine1
			{
				OFFSET 0.000000 12.508769 -0.658067
				CHANNELS 3 Xrotation Yrotation Zrotation
				JOINT Spine1_split
				{
					OFFSET 0.000000 12.508769 -0.658067
					CHANNELS 3 Xrotation Yrotation Zrotation
					JOINT Spine2
					{
						OFFSET 0.000000 12.508769 -0.658067
						CHANNELS 3 Xrotation Yrotation Zrotation
						JOINT Neck_virtual
						{
							OFFSET 0.000000 0.000000 0.000000
							CHANNELS 3 Xrotation Yrotation Zrotation
							JOINT Neck
							{
								OFFSET 0.000000 14.033295 7.520400
								CHANNELS 3 Xrotation Yrotation Zrotation
								JOINT Head
								{
									OFFSET 0.000000 8.198502 5.703100
									CHANNELS 3 Xrotation Yrotation Zrotation
									JOINT HeadTop_End
									{
										OFFSET 0.000000 17.760803 13.332701
										CHANNELS 3 Xrotation Yrotation Zrotation
										End Site
										{
											OFFSET 0 0 0
										}
									}
								}
							}
						}
						JOINT LeftShoulder_virtual
						{
							OFFSET 0.000000 0.000000 0.000000
							CHANNELS 3 Xrotation Yrotation Zrotation
							JOINT LeftShoulder
							{
								OFFSET 6.292450 5.785301 -0.669000
								CHANNELS 3 Xrotation Yrotation Zrotation
								JOINT LeftShoulder_split
								{
									OFFSET 6.292450 5.785301 -0.669000
									CHANNELS 3 Xrotation Yrotation Zrotation
									JOINT LeftArm
									{
										OFFSET 13.907140 -6.093903 1.965100
										CHANNELS 3 Xrotation Yrotation Zrotation
										JOINT LeftForeArm
										{
											OFFSET 34.140198 0.000000 0.000000
											CHANNELS 3 Xrotation Yrotation Zrotation
											JOINT LeftHand
											{
												OFFSET 40.960209 0.000000 0.000000
												CHANNELS 3 Xrotation Yrotation Zrotation
												End Site
												{
													OFFSET 0 0 0
												}
											}
										}
									}
								}
							}
						}
						JOINT RightShoulder_virtual
						{
							OFFSET 0.000000 0.000000 0.000000
							CHANNELS 3 Xrotation Yrotation Zrotation
							JOINT RightShoulder
							{
								OFFSET -6.292450 5.785301 -0.669000
								CHANNELS 3 Xrotation Yrotation Zrotation
								JOINT RightShoulder_split
								{
									OFFSET -6.292450 5.785301 -0.669000
									CHANNELS 3 Xrotation Yrotation Zrotation
									JOINT RightArm
									{
										OFFSET -13.907140 -6.093903 1.965100
										CHANNELS 3 Xrotation Yrotation Zrotation
										JOINT RightForeArm
										{
											OFFSET -34.140198 0.000000 0.000000
											CHANNELS 3 Xrotation Yrotation Zrotation
											JOINT RightHand
											{
												OFFSET -40.960209 0.000000 0.000000
												CHANNELS 3 Xrotation Yrotation Zrotation
												End Site
												{
													OFFSET 0 0 0
												}
											}
										}
									}
								}
							}
						}
					}
				}
			}
		}
	}
}
MOTION
Frames: 11
Frame Time: 0.03333333
5.222293 89.468559 -3.600658 0.000000 0.000000 0.000000 2.461755 -55.096267 4.136362 -49.591183 -2.641841 25.788153 45.849219 -4.022197 1.045519 2.723145 -9.506851 -18.725097 -1.099250 0.094712 0.304287 0.000000 0.000000 0.000000 1.006249 -54.900774 3.835279 -31.629643 -24.414866 -41.067168 47.534541 12.964777 -2.954006 -17.573708 -7.600944 21.016405 0.489274 0.606473 0.216684 0.000000 0.000000 0.000000 4.259940 -52.096868 4.820209 8.749165 10.370145 -1.437195 3.577904 4.717122 -1.402057 0.391400 -0.163602 -0.058834 0.000000 0.000000 0.000000 3.864707 4.879761 -1.137154 -2.560301 2.956013 3.220424 -5.155717 39.998107 -6.485770 0.000000 0.000000 0.000000 4.326845 4.789586 -1.900728 0.423074 -8.495896 -15.832882 -6.145838 2.067359 1.331600 -11.797541 -39.472066 -19.813359 -6.327206 -66.645011 -3.162556 0.000000 0.000000 0.000000 5.666918 5.266828 -1.500345 -4.918818 20.475580 -19.507813 1.893335 -4.962122 -4.206492 -31.905600 28.257905 29.874663 -128.141889 88.119761 127.378124 0.000000 0.000000 0.000000 
5.588419 90.126205 -3.698231 0.000000 0.000000 0.000000 2.252678 -56.570451 4.173529 -48.861367 -1.373745 26.445338 45.244894 -4.429323 0.963843 2.563275 -8.623986 -18.937159 -1.139766 0.137604 0.098123 0.000000 0.000000 0.000000 0.973664 -55.995930 3.788095 -32.661910 -23.710962 -40.657302 47.186314 12.436055 -2.819712 -16.163767 -7.119349 20.336344 0.933184 0.617695 0.208582 0.000000 0.000000 0.000000 3.660926 -53.071485 4.431776 10.338512 10.530954 -1.974641 3.666287 4.473810 -1.547994 0.267148 0.019357 -0.145250 0.000000 0.000000 0.000000 3.685743 4.692099 -1.151206 -2.485405 2.773053 3.615045 -8.152884 39.466585 -5.852696 0.000000 0.000000 0.000000 4.808145 4.353403 -1.867707 0.783661 -8.698841 -15.851073 -7.392712 2.284794 1.014117 -20.936239 -38.500496 -25.704493 -4.896400 -67.539144 -1.981851 0.000000 0.000000 0.000000 5.856772 5.075253 -1.273036 -1.756402 20.586149 -14.250233 1.790521 -4.302027 -3.909167 -22.246240 32.600336 24.991659 -169.922197 84.280908 169.208538 0.000000 0.000000 0.000000 
5.888286 91.031723 -3.793873 0.000000 0.000000 0.000000 2.197908 -58.747550 4.033315 -47.548816 0.318628 27.519088 44.378171 -5.179375 0.940945 1.544971 -7.425870 -19.227454 -1.325643 0.139357 -0.085087 0.000000 0.000000 0.000000 0.958878 -58.068813 3.495420 -33.671057 -22.765145 -39.804382 45.981226 11.879303 -2.672112 -14.231917 -6.425936 19.782166 1.168056 0.610490 0.257320 0.000000 0.000000 0.000000 3.054687 -55.024598 3.797220 11.897524 10.281133 -2.719887 3.692444 4.064267 -1.768045 0.407533 0.014664 -0.083658 0.000000 0.000000 0.000000 3.558055 4.251695 -1.322066 -2.698411 2.546375 3.946410 -10.438268 39.863801 -5.205224 0.000000 0.000000 0.000000 5.147104 3.771092 -1.900082 1.178450 -8.471316 -14.955623 -8.405990 2.407460 0.710875 -29.848207 -36.567033 -30.110237 -2.668799 -68.303927 -0.121543 0.000000 0.000000 0.000000 5.848776 4.642368 -1.319411 0.647064 20.079728 -10.318695 1.940579 -2.729708 -3.087716 -14.112965 34.670897 18.352087 -174.470011 81.447301 173.571035 0.000000 0.000000 0.000000 
6.124009 92.126701 -3.871510 0.000000 0.000000 0.000000 2.111757 -61.677414 3.586899 -45.602007 2.309244 28.962956 43.536066 -6.202506 0.941600 -0.055543 -5.956545 -19.530707 -1.703160 0.093167 -0.223636 0.000000 0.000000 0.000000 0.951050 -60.975107 2.954566 -34.693953 -21.597917 -38.522940 44.025846 11.359448 -2.520341 -11.982171 -5.446499 19.330060 1.304713 0.575566 0.377948 0.000000 0.000000 0.000000 2.356608 -57.755711 2.856056 13.173920 9.755394 -3.653963 3.697876 3.627005 -2.022225 0.519919 0.152884 0.019602 0.000000 0.000000 0.000000 3.500119 3.702723 -1.566253 -3.210218 2.256990 4.274641 -11.712946 41.087508 -4.504462 0.000000 0.000000 0.000000 5.314705 3.200454 -1.969426 1.508723 -8.092339 -13.230246 -9.221374 2.334891 0.500987 -37.083146 -33.905954 -31.414519 -0.145281 -69.791788 1.978153 0.000000 0.000000 0.000000 5.720093 4.115063 -1.578947 2.377152 19.349274 -7.976147 1.920484 -0.970187 -1.743818 -9.544698 37.528126 11.889480 -173.328495 82.103874 172.005719 0.000000 0.000000 0.000000 
6.345921 93.298119 -3.953976 0.000000 0.000000 0.000000 2.128548 -65.416417 2.992414 -43.154525 4.462950 30.647947 42.987609 -7.313152 0.952523 -1.935732 -4.113208 -19.653845 -2.011391 0.002543 -0.348579 0.000000 0.000000 0.000000 0.821590 -64.637482 2.126672 -35.769718 -20.276455 -36.901016 41.533209 10.851703 -2.329550 -9.668873 -4.139753 18.857937 1.436889 0.516434 0.553120 0.000000 0.000000 0.000000 1.568048 -61.247645 1.642081 13.973062 9.049967 -4.713175 3.737220 3.259142 -2.230223 0.923345 0.207155 0.096857 0.000000 0.000000 0.000000 3.540473 3.173825 -1.786064 -4.021332 2.109550 4.529416 -11.981421 43.156950 -3.736633 0.000000 0.000000 0.000000 5.343194 2.756700 -2.044069 1.732804 -7.720603 -10.931146 -9.628119 2.193654 0.724447 -41.444553 -30.831706 -29.111455 1.862349 -72.350281 3.656084 0.000000 0.000000 0.000000 5.548779 3.608514 -1.905144 3.418248 18.382636 -7.200006 1.249623 0.028909 0.142889 -9.105094 43.299841 6.809345 -165.620244 85.052794 163.730604 0.000000 0.000000 0.000000 
6.499249 94.461617 -4.070457 0.000000 0.000000 0.000000 2.052925 -69.780129 2.243225 -40.261978 6.771290 32.481337 42.681978 -8.360194 0.962766 -3.789444 -1.962445 -19.576620 -2.194287 -0.111545 -0.452603 0.000000 0.000000 0.000000 0.509561 -68.765955 1.101953 -36.928794 -18.825284 -35.095407 38.852828 10.360415 -2.135792 -7.420335 -2.519369 18.343028 1.652016 0.453960 0.738554 0.000000 0.000000 0.000000 0.481089 -65.254883 0.133603 14.147367 8.176862 -5.835834 3.802213 2.977895 -2.322360 1.305783 -0.389496 0.068801 0.000000 0.000000 0.000000 3.681304 2.682966 -1.847518 -5.001597 2.312670 4.666925 -11.199914 46.122697 -3.152232 0.000000 0.000000 0.000000 5.250479 2.473797 -2.049480 1.880159 -7.532269 -8.288523 -9.727840 2.041407 1.442994 -43.026579 -26.746872 -24.060552 2.896004 -75.020421 4.509398 0.000000 0.000000 0.000000 5.395038 3.145224 -2.146344 3.737674 16.972101 -7.626137 0.503617 0.212842 1.878891 -13.386705 51.319528 5.159823 -142.951515 87.452089 140.605468 0.000000 0.000000 0.000000 
6.578334 95.528847 -4.168034 0.000000 0.000000 0.000000 1.694309 -74.439971 1.359956 -37.094467 9.336197 34.243474 42.312988 -9.235590 0.930033 -5.370145 0.359364 -19.437714 -2.302694 -0.239202 -0.497831 0.000000 0.000000 0.000000 -0.042384 -73.229634 -0.018186 -38.093416 -17.361192 -33.287347 36.260303 9.931535 -1.988141 -5.226735 -0.578997 17.931441 1.957776 0.412603 0.901012 0.000000 0.000000 0.000000 -0.884041 -69.609893 -1.575713 13.651577 7.175576 -6.924459 3.863327 2.741653 -2.291931 1.600380 -0.769086 0.299298 0.000000 0.000000 0.000000 3.933752 2.233052 -1.746449 -6.037539 2.968343 4.713992 -9.301114 50.084582 -3.108785 0.000000 0.000000 0.000000 5.042277 2.281263 -1.991177 1.971343 -7.585132 -5.529785 -9.488125 1.644561 2.442399 -42.524078 -21.179604 -17.790947 2.244130 -76.484130 3.914792 0.000000 0.000000 0.000000 5.216080 2.688267 -2.215144 3.547121 15.245247 -8.792112 -0.168993 -0.179908 3.263990 -23.327902 59.307516 9.600570 -118.506460 88.122049 116.147572 0.000000 0.000000 0.000000 
6.637286 96.437271 -4.200512 0.000000 0.000000 0.000000 1.465661 -79.001602 0.800681 -33.945924 12.203651 35.716702 41.482666 -9.916473 0.854200 -6.609529 2.635281 -19.270405 -2.416786 -0.383206 -0.456818 0.000000 0.000000 0.000000 -0.861076 -77.810485 -1.158839 -39.154254 -15.934625 -31.582378 33.932892 9.611329 -1.922079 -3.001927 1.569322 17.749196 2.151202 0.402590 1.016406 0.000000 0.000000 0.000000 -2.112623 -74.039852 -2.977380 12.609449 6.015512 -7.816407 3.912896 2.503554 -2.201897 2.151995 -1.284870 0.654210 0.000000 0.000000 0.000000 4.215379 1.808348 -1.587359 -7.050746 4.117207 4.779725 -6.216787 55.060928 -4.027546 0.000000 0.000000 0.000000 4.825701 2.104810 -1.935667 2.127620 -7.724166 -2.696958 -8.847676 0.924346 3.394291 -40.953172 -14.534494 -12.127057 0.290055 -75.333817 2.215694 0.000000 0.000000 0.000000 5.028696 2.234296 -2.154062 2.895694 13.238185 -10.251593 -0.590595 -0.860504 4.098147 -38.371286 64.437166 21.015468 -131.285648 88.134391 129.435090 0.000000 0.000000 0.000000 
6.591469 97.139404 -4.227222 0.000000 0.000000 0.000000 1.520611 -82.901872 0.762431 -31.138211 15.299654 36.840118 39.939244 -10.523080 0.768270 -7.395840 4.551026 -19.218680 -2.584959 -0.536269 -0.335826 0.000000 0.000000 0.000000 -1.414406 -81.990527 -1.815345 -39.945924 -14.609505 -29.924346 31.760824 9.333221 -1.981733 -0.891961 3.697846 17.734612 2.121417 0.438911 1.084853 0.000000 0.000000 0.000000 -2.465611 -78.257944 -3.418284 11.170161 4.708493 -8.363512 3.924039 2.262746 -2.153664 2.578451 -1.343715 0.899889 0.000000 0.000000 0.000000 4.400726 1.430067 -1.493726 -7.964479 5.527868 4.950215 -1.590918 60.615340 -6.424994 0.000000 0.000000 0.000000 4.663015 1.885133 -1.952570 2.350964 -7.744103 0.233686 -8.310491 -0.294812 4.273573 -39.505572 -7.392489 -8.099862 -1.255780 -71.103266 1.057623 0.000000 0.000000 0.000000 4.793100 1.778981 -2.074981 2.073246 11.144768 -11.870745 -1.469443 -1.110859 3.979310 -53.000427 65.508542 34.104688 -162.069406 86.953226 161.229224 0.000000 0.000000 0.000000 
6.366677 97.599213 -4.146797 0.000000 0.000000 0.000000 3.891930 -85.955909 3.103719 -29.025097 18.370461 37.699584 37.682038 -11.076479 0.640660 -7.788930 5.981838 -19.217101 -2.689131 -0.695610 -0.189265 0.000000 0.000000 0.000000 0.127841 -85.414439 -0.287804 -40.356548 -13.470610 -28.242390 29.411604 9.014384 -2.135572 0.822160 5.606282 17.801517 1.815000 0.511605 1.090852 0.000000 0.000000 0.000000 -0.744229 -81.936370 -1.792619 9.558334 3.328183 -8.490576 3.916114 2.054062 -2.215226 2.671101 -0.524006 0.874539 0.000000 0.000000 0.000000 4.417169 1.141699 -1.569560 -8.779708 6.991402 5.216343 4.704209 66.054418 -10.643535 0.000000 0.000000 0.000000 4.563195 1.645711 -2.077294 2.569322 -7.568945 3.339666 -7.653027 -1.537316 5.172596 -38.962555 -1.045096 -5.779699 -2.010722 -64.669351 0.726579 0.000000 0.000000 0.000000 4.518469 1.372391 -2.098124 1.246270 9.067856 -13.575017 -2.585322 -0.796861 3.569011 -61.438842 64.650555 42.933961 -174.444602 83.780412 174.899793 0.000000 0.000000 0.000000 
6.034683 97.818039 -3.906765 0.000000 0.000000 0.000000 15.431986 -88.094127 14.625493 -27.822265 21.178146 38.300545 35.033857 -11.453244 0.456284 -8.028770 6.996002 -18.999233 -2.598100 -0.829007 -0.114239 0.000000 0.000000 0.000000 10.436066 -87.882985 10.006127 -40.734374 -12.485001 -26.727452 27.156371 8.773690 -2.322349 2.228912 7.238933 18.034542 1.382316 0.608695 1.047477 0.000000 0.000000 0.000000 4.485601 -84.802345 3.467839 8.053196 1.973170 -8.249371 3.900902 1.896360 -2.382938 2.249442 0.286642 0.660434 0.000000 0.000000 0.000000 4.286428 0.975360 -1.837610 -9.373189 8.247357 5.542503 12.549632 70.677589 -16.698306 0.000000 0.000000 0.000000 4.587085 1.410981 -2.247808 2.703269 -7.204328 6.436760 -6.902097 -2.583996 5.886032 -39.173867 4.322495 -4.598718 -2.353314 -57.099009 0.759896 0.000000 0.000000 0.000000 4.281295 1.061042 -2.250233 0.490610 7.087911 -15.342514 -3.671307 -0.254097 3.717975 -63.526408 63.855691 46.875691 -177.015404 78.374139 178.851509 0.000000 0.000000 0.000000 
